<svg id="visual" viewBox="0 0 960 300" width="960" height="300" xmlns="http://www.w3.org/2000/svg" xmlns:xlink="http://www.w3.org/1999/xlink" version="1.1"><rect x="0" y="0" width="960" height="300" fill="#202731"></rect><path d="M0 88L22.8 83.5C45.7 79 91.3 70 137 75.3C182.7 80.7 228.3 100.3 274 111.7C319.7 123 365.3 126 411.2 117.5C457 109 503 89 548.8 86.5C594.7 84 640.3 99 686 109.3C731.7 119.7 777.3 125.3 823 117.3C868.7 109.3 914.3 87.7 937.2 76.8L960 66L960 301L937.2 301C914.3 301 868.7 301 823 301C777.3 301 731.7 301 686 301C640.3 301 594.7 301 548.8 301C503 301 457 301 411.2 301C365.3 301 319.7 301 274 301C228.3 301 182.7 301 137 301C91.3 301 45.7 301 22.8 301L0 301Z" fill="#fa7268"></path><path d="M0 101L22.8 113.7C45.7 126.3 91.3 151.7 137 160.3C182.7 169 228.3 161 274 160.2C319.7 159.3 365.3 165.7 411.2 156.8C457 148 503 124 548.8 112C594.7 100 640.3 100 686 107.3C731.7 114.7 777.3 129.3 823 140.7C868.7 152 914.3 160 937.2 164L960 168L960 301L937.2 301C914.3 301 868.7 301 823 301C777.3 301 731.7 301 686 301C640.3 301 594.7 301 548.8 301C503 301 457 301 411.2 301C365.3 301 319.7 301 274 301C228.3 301 182.7 301 137 301C91.3 301 45.7 301 22.8 301L0 301Z" fill="#ef5f67"></path><path d="M0 138L22.8 141C45.7 144 91.3 150 137 151.2C182.7 152.3 228.3 148.7 274 156.5C319.7 164.3 365.3 183.7 411.2 192.8C457 202 503 201 548.8 200.8C594.7 200.7 640.3 201.3 686 194.3C731.7 187.3 777.3 172.7 823 171.3C868.7 170 914.3 182 937.2 188L960 194L960 301L937.2 301C914.3 301 868.7 301 823 301C777.3 301 731.7 301 686 301C640.3 301 594.7 301 548.8 301C503 301 457 301 411.2 301C365.3 301 319.7 301 274 301C228.3 301 182.7 301 137 301C91.3 301 45.7 301 22.8 301L0 301Z" fill="#e34c67"></path><path d="M0 203L22.8 199.5C45.7 196 91.3 189 137 187.2C182.7 185.3 228.3 188.7 274 198.3C319.7 208 365.3 224 411.2 226.2C457 228.3 503 216.7 548.8 210.7C594.7 204.7 640.3 204.3 686 205.5C731.7 206.7 777.3 209.3 823 211.3C868.7 213.3 914.3 214.7 937.2 215.3L960 216L960 301L937.2 301C914.3 301 868.7 301 823 301C777.3 301 731.7 301 686 301C640.3 301 594.7 301 548.8 301C503 301 457 301 411.2 301C365.3 301 319.7 301 274 301C228.3 301 182.7 301 137 301C91.3 301 45.7 301 22.8 301L0 301Z" fill="#d53867"></path><path d="M0 264L22.8 263.5C45.7 263 91.3 262 137 262.2C182.7 262.3 228.3 263.7 274 263C319.7 262.3 365.3 259.7 411.2 256.5C457 253.3 503 249.7 548.8 248.2C594.7 246.7 640.3 247.3 686 249C731.7 250.7 777.3 253.3 823 251.2C868.7 249 914.3 242 937.2 238.5L960 235L960 301L937.2 301C914.3 301 868.7 301 823 301C777.3 301 731.7 301 686 301C640.3 301 594.7 301 548.8 301C503 301 457 301 411.2 301C365.3 301 319.7 301 274 301C228.3 301 182.7 301 137 301C91.3 301 45.7 301 22.8 301L0 301Z" fill="#c62368"></path></svg>